<svg xmlns="http://www.w3.org/2000/svg" viewBox="0 0 1600 1000" preserveAspectRatio="xMidYMid slice">
  <rect width="1600" height="1000" fill="#2C2C2A"/>
  <rect x="0" y="0" width="1600" height="1000" fill="#F1EFE8" opacity=".08"/>
  <circle cx="1160" cy="470" r="330" fill="#FAEEDA"/>
  <circle cx="1160" cy="470" r="250" fill="#FFFDF8"/>
  <circle cx="1160" cy="470" r="180" fill="#F1EFE8"/>
  <path d="M980 465c145-82 288-84 416-5" fill="none" stroke="#EF9F27" stroke-width="30" stroke-linecap="round"/>
  <path d="M995 545c118 74 242 82 361 4" fill="none" stroke="#854F0B" stroke-width="24" stroke-linecap="round" opacity=".82"/>
  <circle cx="1080" cy="390" r="26" fill="#854F0B"/>
  <circle cx="1235" cy="385" r="22" fill="#EF9F27"/>
  <circle cx="1300" cy="520" r="19" fill="#854F0B"/>
  <path d="M1030 580c70 44 175 63 289 6" fill="none" stroke="#2C2C2A" stroke-width="8" stroke-linecap="round" opacity=".38"/>
  <path d="M120 760c240-170 500-220 790-108" fill="none" stroke="#EF9F27" stroke-width="3" opacity=".55"/>
  <path d="M60 820c330-140 620-150 940-42" fill="none" stroke="#FAEEDA" stroke-width="2" opacity=".38"/>
</svg>
